PathFileType	4	(X/Y/Z)	Patient4_TMGait_0pt3_02_right_08.trc.trc
DataRate	CameraRate	NumFrames	NumMarkers	Units	OrigDataRate	OrigDataStartFrame	OrigNumFrames
50.359712230216	50.359712230216	7	33	mm	50.359712230216	53	       141
Frame#	Time	Sacral			L.Shoulder			Chest			R.Shoulder			Neck			R.ASIS			L.ASIS			R.Thigh.Superior			R.Thigh.Lateral			R.Thigh.Inferior			R.Patella			L.Thigh.Superior			L.Thigh.Lateral			L.Thigh.Inferior			L.Patella			L.Shank.Superior			L.Shank.Lateral			L.Shank.Inferior			R.Shank.Superior			R.Shank.Lateral			R.Shank.Inferior			R.Heel			R.Midfoot.Superior			R.Midfoot.Lateral			R.Toe			L.Heel			L.Midfoot.Lateral			L.Midfoot.Superior			L.Toe			L.Elbow			L.Wrist			R.Elbow			R.Wrist			
		X1	Y1	Z1	X2	Y2	Z2	X3	Y3	Z3	X4	Y4	Z4	X5	Y5	Z5	X6	Y6	Z6	X7	Y7	Z7	X8	Y8	Z8	X9	Y9	Z9	X10	Y10	Z10	X11	Y11	Z11	X12	Y12	Z12	X13	Y13	Z13	X14	Y14	Z14	X15	Y15	Z15	X16	Y16	Z16	X17	Y17	Z17	X18	Y18	Z18	X19	Y19	Z19	X20	Y20	Z20	X21	Y21	Z21	X22	Y22	Z22	X23	Y23	Z23	X24	Y24	Z24	X25	Y25	Z25	X26	Y26	Z26	X27	Y27	Z27	X28	Y28	Z28	X29	Y29	Z29	X30	Y30	Z30	X31	Y31	Z31	X32	Y32	Z32	X33	Y33	Z33	

53	15.572571428571	702.411472136214	991.973078198957	590.189904013069	883.732639473938	1410.587214483492	381.954221466254	986.905173244749	1346.942654385319	544.551755453189	909.625077377226	1428.057538749979	717.282192398528	871.769894490069	1480.912653281807	537.396835855877	940.796810991487	931.243339516375	694.275889185619	908.590868837975	945.362855140290	421.737326488356	989.725803420474	732.451646744703	650.834996928946	915.213946455822	614.294660740267	703.257380783920	989.822135383221	570.268254665104	615.300537016797	992.663249646568	474.994016420304	615.230213141378	991.344856143222	759.350211809182	456.530584376724	941.941702977977	631.718487898434	383.288095591601	1039.823925911697	565.375061929626	452.042480746885	1046.108429017705	473.867973485862	442.816620386835	972.864191451494	413.721588904514	428.769131144523	827.275311148784	386.928462126015	378.160727528383	804.208428056688	254.898878638001	423.358126277152	948.168647600176	388.377751355993	619.589158540496	865.411869467512	292.882695021177	680.680938268624	886.661401101193	197.315908160679	612.172813199093	729.254258585815	44.149376774149	585.465997345297	902.542158003324	96.697430186309	617.367209978115	813.768984934072	37.340133866636	658.098072133852	1022.020396465652	41.126004865985	644.084954645616	608.705142544551	201.356937165021	458.548690584372	662.405758840745	158.880428376223	374.162656212768	768.478711129832	158.085571729048	394.851753623394	838.232943748151	43.307346325550	356.037316206938	879.083832668516	1048.555890000905	288.889794394799	973.541574088481	807.281721515659	295.379721585383	906.718537070159	1083.800949913886	857.994706445233	1058.807740718992	874.763858344854	890.907501205085	
54	15.592428571429	701.046825926853	989.935272822162	593.402971042926	879.002211779957	1408.073949752579	381.876189293467	984.848861480021	1345.200009479796	543.026721240763	910.389033574830	1426.817531256889	716.870931857301	869.789761314460	1479.113915955577	537.052326077543	940.641401448483	929.780398278129	694.562927672088	905.308604521302	943.921217956933	422.213142893784	989.687622959356	730.976770575253	650.268081955414	916.096087911559	612.410765808811	702.886850344676	989.975662589285	568.825042391089	614.003186789847	992.832706796938	472.924563553263	613.594001707392	992.479472683983	762.445352794388	458.289939060429	947.169253747738	633.590321214922	384.700310260348	1046.490738469182	569.945569493116	453.864034248055	1055.605785061728	478.636917584900	444.144184148848	984.417204135495	416.419630362264	429.667382040158	839.696913974508	384.740957228611	379.949996695503	822.053412076054	251.780124198566	424.210165944494	946.993458346056	386.532525173052	618.391232221501	863.402904135176	292.070697085726	680.127904846651	882.639692101633	196.293026656661	611.562838134137	723.308746116230	44.229287992288	585.583931643827	896.586164728828	96.564344792567	617.212581385165	807.846112547064	37.338600579033	658.178452689220	1016.106349315932	40.979503741822	644.103353778463	629.389277620923	189.924170648603	460.614319846917	683.964232239211	151.205311915219	375.080531744072	789.809462081404	154.670046494754	395.056825956601	863.881112373855	43.854395364818	353.791173577791	863.475990991921	1045.137876505908	293.177285827871	937.727589267418	796.489910935780	301.472378737924	921.835261054768	1082.956379308545	858.341968182096	1092.382199156589	888.278853834324	885.748336939116	
55	15.612285714286	699.731637608850	988.306043476513	596.339816256303	874.350671470591	1405.919608175526	381.765153216843	982.928005715132	1343.733254770468	541.330930707747	911.416308073763	1425.886298903295	716.272589272044	867.969157094931	1477.609299053205	536.610704724701	940.447923232088	928.475138493969	694.580213766325	902.065553071305	942.758981242986	422.461015824964	989.203209913494	729.580089943029	649.524041320006	916.400365404172	610.762739400214	702.497437208597	989.456374502308	567.471372906284	612.725976300733	992.220728336046	471.057725030767	612.069216562009	992.899800537295	765.372259761296	459.419369973820	951.009740092935	635.594506482381	385.447649208074	1051.564563555318	574.325232922705	454.714914424722	1063.422819309020	483.604064211012	444.528058685784	994.935766558913	419.252446255213	429.727258117707	851.851500186518	381.199876345100	380.789713978786	841.056280204935	247.485500518312	424.243208318751	945.207865524900	384.890671254338	617.290764957989	860.931138771937	291.351118928151	679.630856525940	878.383356582088	195.389009634134	611.027228816679	717.367059167545	44.322252793516	585.697880852957	890.615198529902	96.431270402346	617.067346824856	801.925714930551	37.343843351307	658.252025383681	1010.190080154978	40.823241702037	644.128869070161	652.373911088959	175.671303151445	461.766088954153	708.082257258719	140.980199513684	375.278193725412	813.428279405986	149.752400210685	394.584763304628	892.692989093143	43.863602907569	351.333827041620	847.120213848391	1042.760235213382	297.000106894229	902.439163316750	788.901940989139	307.429738707611	937.204497261363	1083.077850656477	858.127390447368	1125.271932193287	904.890681643360	879.103011414981	
56	15.632142857143	698.497624341497	987.202219237870	598.999105289952	869.818980239782	1404.263075331685	381.634210267020	981.165489634852	1342.649553581434	539.471394003400	912.725139366987	1425.350599212231	715.485227456834	866.329767489146	1476.501345620478	536.106620448182	940.246506937093	927.422683827136	694.323829191000	898.901264455868	941.984700161182	422.475907556985	988.223953093010	728.317432884904	648.624186014440	916.014941157110	609.432555975730	702.114492811736	988.141060205987	566.256359026274	611.515485692313	990.675565941708	469.463926980561	610.713288538366	992.596640858359	768.081601674926	459.916512524276	953.390636773798	637.666352537369	385.507929841081	1054.963594051575	578.384573479662	454.592069455899	1069.424752056028	488.657111228535	443.983171258373	1004.254577025194	422.203656608095	428.954771199807	863.723029166812	376.500285319410	380.603574731765	861.017588166460	242.387048688344	423.414092092964	942.688180305525	383.523342822423	616.334272796058	857.897058120857	290.762603179913	679.221048962345	873.838661308005	194.647590605831	610.589402973435	711.423598468363	44.431678686477	585.810208425772	884.633378504207	96.308574930677	616.947585726143	796.003108641784	37.358227602182	658.320248598382	1004.264282257234	40.667075771614	644.159925968629	677.556804812599	159.421044899081	461.891756553272	734.585198712561	128.874656242478	374.688227843644	839.086332650307	143.761767869310	393.397972910881	924.131925738267	43.555853489590	348.726705622223	830.191842789054	1041.616151465999	300.347274269456	868.236446022885	784.431417912248	313.167517846081	952.739938577059	1084.256784296104	857.356990580715	1156.908821348935	924.546153527657	871.072905637467	
57	15.652000000000	697.378209485938	986.709223163656	601.383184878071	865.450560822102	1403.211215548567	381.484781562863	979.579436161209	1342.028779436980	537.453673126351	914.320351240157	1425.272285523370	714.501948557335	864.886438849573	1475.866704887229	535.568499884069	940.061688966483	926.699836243609	693.787249136765	895.840917908870	941.681387215706	422.252017546937	986.727696767511	727.237505249982	647.585446801945	914.869637987065	608.484442035328	701.751565328407	985.953358986324	565.223013728804	610.403456007036	988.100398633989	468.200605663631	609.563961175197	991.563444888838	770.526790311073	459.800881710781	954.267343283650	639.741690215172	384.888621601437	1056.633954105884	582.008416768635	453.541418054849	1073.515253340282	493.685799336651	442.576422527135	1012.222194556940	425.265127209077	427.405552575143	875.284973941322	370.907558455735	379.374700072935	881.674664795632	236.921481296261	421.739589035020	939.357038912199	382.487801793952	615.552935878325	854.237041200938	290.339519544510	678.920107852120	868.969739086926	194.105984960390	610.264871123174	705.473921280385	44.563218130991	585.924194899469	878.647821605690	96.206577054936	616.867501331373	790.075121766011	37.384995174225	658.384866071581	998.323665396408	40.518726603923	644.194119713091	704.715712949467	142.088317278163	460.952123528659	763.196142694457	115.667122002260	373.306766913117	866.444316139182	137.218599040693	391.516592004915	957.571772436445	43.250786533564	346.067934111683	812.938962111881	1041.834196452468	303.238054641497	835.594979972945	782.861354740903	318.599358249820	968.347706532586	1086.551722619163	856.041849620926	1186.762523163352	947.066044031638	861.789024965294	
58	15.671857142857	696.404627913254	986.868749409484	603.494272388258	861.291146440432	1402.823709089380	381.306849092246	978.184097789914	1341.910835873297	535.283380095007	916.192233894723	1425.677934363193	713.313008920486	863.648141834600	1475.744621769700	535.014089990397	939.910680438915	926.353494007159	692.963103229013	892.896887692659	941.892619084012	421.783491722513	984.719241456886	726.374667291304	646.420376022588	912.941268940145	607.957459485716	701.413290230151	982.868981178741	564.401828552261	609.407431947063	984.460234093965	467.305739366605	608.640301135545	989.804111155833	772.662349820778	459.107780893749	953.634602407168	641.755881774321	383.622221031620	1056.564848391253	585.098908371773	451.647737108058	1075.651540170735	498.582172437878	440.415459061316	1018.715537485658	428.427375717836	425.177473926588	886.492198592661	364.731822507882	377.144302775796	902.701357236688	231.543152721198	419.294545327394	935.189032244657	381.820396389148	614.962796746284	849.927385340542	290.106728685966	678.739493769107	863.762082915123	193.789689464167	610.060644868091	699.515104026782	44.722410408999	586.042772959559	872.666407971752	96.133539259951	616.836879988900	784.140074561587	37.427362891888	658.447860181502	992.365516532950	40.383076397978	644.228850934272	733.487867058961	124.606117063514	458.978605190861	793.520609831414	102.170472633879	371.194323514021	895.067344706286	130.676908860193	389.020744043496	992.313227967691	43.311217380650	343.500113412937	795.663736984883	1043.455179127522	305.714402907838	804.893838457107	783.864252243922	323.645420951439	983.930992274986	1089.979012160462	854.197941512651	1214.372725450613	972.148213727303	851.406989264476	
59	15.691714285714	695.602313372800	987.669825143349	605.330467519104	857.386500811913	1403.102826223782	381.080078844482	976.989651222364	1342.287630663089	532.967006469977	918.315534786563	1426.552364320747	711.908024277663	862.618399556823	1476.129346059267	534.445506929116	939.803188373089	926.393214594927	691.846153309847	890.073950719725	942.612844647675	421.065563126513	982.229366934968	725.743002434100	645.138855765908	910.254025578248	607.860268244773	701.098642440651	978.916446016771	563.805253334527	608.533211546825	979.783242338070	466.792201000154	607.945165726720	987.343169358373	774.442566900831	457.881357698588	951.537806901049	643.642293243752	381.761172482424	1054.803957439057	587.577686374490	449.022241146492	1075.857269793508	503.239594874876	437.635436996696	1023.653509489974	431.668500710644	422.398979709675	897.272292147847	358.298376972969	374.007189136585	923.711177569834	226.673605113536	416.203209089434	930.211109719394	381.530998000246	614.566078745077	844.984111960295	290.074866081954	678.680810054227	858.223975962328	193.707747973849	609.975261732578	693.545639778880	44.911986490716	586.167498483887	866.695695194756	96.094030403109	616.859459018229	778.197271088134	37.487263144077	658.511300583656	986.389555025645	40.262437633265	644.261895981307	763.360688271537	107.847480885435	456.064487104707	825.036332705601	89.155674119743	368.467507948641	924.421709464835	124.663594853412	386.043338827366	1027.597386886158	44.084437173702	341.202377049130	778.696807826606	1046.418740403990	307.828484998138	776.418167864718	787.026182490964	328.240017040363	999.394657044693	1094.506479260420	851.844546371070	1239.374857872125	999.379598864228	840.100610932655	
